<?xml version="1.0" encoding="UTF-8"?><svg id="Layer_2" xmlns="http://www.w3.org/2000/svg" viewBox="0 0 543.21 73.54"><defs><style>.cls-1{fill:#7f47dd;}</style></defs><g id="Layer_1-2"><g><path d="M14.43,28.32c0-1.55,1.79-2.95,6.77-2.95,3.4,0,7.18,.64,11,2.51,.63,.31,1.4,.02,1.69-.63l3.41-7.72c.28-.63,0-1.36-.62-1.66-4.19-1.97-10.13-3.02-15.55-3.02C7.9,14.86,.58,20.93,.58,28.87c0,16.89,24.9,10.43,24.9,16.11,0,1.79-1.63,2.88-6.61,2.88s-9.95-1.26-13.78-3.35c-.51-.28-1.14-.05-1.37,.48,0,0,0,0,0,0,0,0,0,0,0,0l-2.24,5.11c-.08,.19-.16,.37-.24,.55l-.57,1.3c-.22,.51-.42,.96-.57,1.31-.21,.48-.01,1.02,.44,1.27,0,0,0,0,.01,.01,1.06,.58,2.28,1.11,3.63,1.58,.34,.12,.68,.23,1.03,.34,.7,.22,1.43,.43,2.19,.62,3.39,.85,7.23,1.35,11.01,1.35,10.19,0,16.76-3.36,19.46-8.28,.93-1.7,1.4-3.58,1.4-5.57,0-2.41-.51-4.34-1.4-5.89-5.23-9.28-23.43-5.38-23.43-10.38Z"/><path d="M109.34,33.12c.3-.26,.48-.63,.46-1.02-.06-1.4-.21-2.7-.44-3.92-.74-3.81-2.27-6.74-4.4-8.87-3.04-3.03-7.28-4.44-12.16-4.44-5.5,0-10.3,1.98-13.64,5.48-.52,.55-1.4,.51-1.88-.07-3-3.68-7.51-5.41-12.73-5.41-4,0-7.64,1.1-10.58,3.31-.84,.63-2.03,.06-2.03-.99v-.36c0-.7-.56-1.26-1.26-1.26h-5.99c-.1,0-.2,.06-.24,.16l-.83,1.89-5.76,13.02v.78c3.68,2.56,6.4,6.62,6.4,13.18,0,3.72-1.23,7.7-4.14,11.04-.72,.83-.17,2.11,.93,2.11h10.33c.7,0,1.26-.56,1.26-1.26v-19.67c0-6.54,3.11-9.42,7.47-9.42,3.97,0,6.38,2.57,6.38,8.64v20.45c0,.7,.56,1.26,1.26,1.26h12.27c.7,0,1.26-.56,1.26-1.26v-19.67c0-6.54,3.11-9.42,7.39-9.42,3.89,0,6.38,2.57,6.38,8.64v20.45c0,.7,.56,1.26,1.26,1.26h9.94c1.04,0,1.62-1.18,1-2.01-.84-1.14-1.53-2.4-2.06-3.76-.8-2.04-1.21-4.23-1.21-6.52s.41-4.63,1.23-6.63c.77-1.89,2.05-3.91,4.13-5.7Z"/><path d="M129.37,14.86c-6.28,0-13.04,1.54-17.83,4.42-.45,.26-.6,.83-.37,1.29l4.06,8.19c.27,.53,.93,.71,1.43,.39,2.87-1.87,6.89-3,10.53-3,5.28,0,8.14,1.97,8.81,5.52,.12,.61-.37,1.17-.99,1.17h-7.28c-10.16,0-15.86,2.91-17.89,7.87-.58,1.42-.86,3.01-.86,4.74s.29,3.24,.86,4.69c1.93,4.91,7.04,8.3,14.86,8.3,4.53,0,8-1.14,10.35-3.35,.79-.75,2.1-.16,2.1,.93v.46c0,.69,.57,1.26,1.26,1.26h11.25c.69,0,1.26-.57,1.26-1.26v-22.16c0-13.39-7.86-19.46-21.55-19.46Zm6.77,29.15c0,.12-.02,.25-.07,.37-1.21,3.23-4.04,4.72-7.25,4.72-3.5,0-5.52-1.79-5.52-4.28s1.71-4.28,6.46-4.28h5.12c.69,0,1.26,.57,1.26,1.26v2.21Z"/><path d="M206.42,47.5l-.15-.43c-.24-.67-.99-1.04-1.64-.76-1.03,.45-2.19,.69-3.36,.69-2.65,0-4.44-1.71-4.44-4.82v-12.75c0-.7,.56-1.26,1.26-1.26h7.13c.7,0,1.26-.56,1.26-1.26v-8.53c0-.7-.56-1.26-1.26-1.26h-7.13c-.7,0-1.26-.56-1.26-1.26V7.41c0-.7-.56-1.26-1.26-1.26h-12.26c-.7,0-1.26,.56-1.26,1.26V15.86c0,.7-.56,1.26-1.26,1.26h-2.01c-1-.02-1.96-.03-2.88,0-2.9,.06-5.39,.42-7.38,1.71-.85,.55-1.96-.03-1.96-1.04v-.97c0-.7-.56-1.26-1.26-1.26h-11.56c-.7,0-1.26,.56-1.26,1.26V56.48c0,.7,.56,1.26,1.26,1.26h12.26c.7,0,1.26-.56,1.26-1.26v-18.12c0-6.91,2.48-9.97,8.64-10.19h.1c.29,0,.6,0,.9,0,.12,0,.22,0,.34,0,.8,.02,1.6,.01,2.49,0,0,0,.01,0,.02,0h1.03c.7,0,1.26,.56,1.26,1.26v12.9c0,10.82,6.3,16.11,17.12,16.11,2.23,0,4.44-.25,6.41-.79,.54-.15,.9-.65,.9-1.21v-8.61c0-.11-.02-.23-.06-.33Z"/><path class="cls-1" d="M296.75,27.41c-.59-1.24-1.3-2.4-2.13-3.48-.12-.15-.23-.29-.35-.44-.65-.84-1.37-1.62-2.15-2.35l.21,.28c-4.22-3.93-10.24-6.25-17.29-6.25-10.18,0-18.32,4.93-21.87,12.63-.02,.05-.05,.11-.07,.16-.42,.92-.77,1.89-1.05,2.89-.01,.01-.01,.02-.02,.03,0,.03,0,.06-.02,.09-.12,.43-.22,.86-.31,1.3-.02,.08-.03,.16-.05,.25-.07,.36-.13,.72-.19,1.09-.02,.14-.03,.29-.05,.44-.04,.32-.08,.66-.1,.99-.01,.14-.03,.28-.03,.42-.03,.47-.05,.94-.05,1.42s.02,.91,.04,1.36c0,.14,.02,.27,.03,.41,.03,.32,.06,.63,.09,.95,.02,.14,.04,.29,.06,.43,.04,.33,.09,.66,.15,.98,.02,.11,.04,.22,.06,.32,.08,.43,.18,.84,.29,1.26,0,.01,0,.03,.01,.05,0,0,0,0,0,.02,.27,1.01,.6,1.99,1.01,2.93,.06,.15,.12,.3,.19,.44,.65,1.42,1.46,2.75,2.4,3.97,.1,.13,.21,.27,.32,.39,4.23,5.21,11.04,8.36,19.15,8.36,6.55,0,12.21-2.02,16.36-5.47,2.41-2.01,4.31-4.5,5.59-7.36,1.22-2.71,1.87-5.75,1.87-9.04,0-3.47-.74-6.66-2.11-9.47Zm-9.57,20.42c0,.69-.57,1.26-1.26,1.26h-21.74c-.69,0-1.26-.57-1.26-1.26V26.09c0-.69,.57-1.26,1.26-1.26h21.74c.69,0,1.26,.57,1.26,1.26v21.74Z"/><path d="M248.95,50.99c-.54-.89-1.04-1.81-1.48-2.77-1.64-3.57-2.48-7.49-2.48-11.65s.84-8.04,2.5-11.61c.43-.94,.92-1.85,1.46-2.72,.24-.38,.2-.88-.11-1.21-3.76-3.96-9.07-6.17-14.97-6.17-4.06,0-7.49,.96-10.18,2.98-.65,.48-1.57,0-1.57-.82V1.26c0-.69-.57-1.26-1.26-1.26h-12.26c-.69,0-1.26,.57-1.26,1.26V56.48c0,.69,.57,1.26,1.26,1.26h11.56c.69,0,1.26-.57,1.26-1.26h0c0-1.03,1.18-1.65,1.99-1.03,2.65,2.03,6.13,2.99,10.46,2.99,5.9,0,11.21-2.23,14.98-6.25,.31-.32,.34-.82,.1-1.2Zm-18.19-4.3c-4.98,0-8.87-3.66-8.87-10.12s3.89-9.96,8.87-9.96,8.87,3.58,8.87,9.96-3.89,10.12-8.87,10.12Z"/><path d="M320.54,36.87c-.34-.45-.33-1.07,0-1.51l13.47-17.77c.63-.83,.04-2.02-1-2.02h-12.46c-.4,0-.78,.19-1.02,.52l-6.37,8.72c-.51,.7-1.55,.69-2.05-.02l-6.08-8.68c-.24-.34-.62-.54-1.03-.54h-5.89c-1.11,0-1.68,1.33-.9,2.13,4.68,4.83,7.42,11.38,7.42,18.88s-2.76,14.18-7.47,19.04c-.77,.8-.21,2.13,.9,2.13h4.87c.4,0,.78-.19,1.02-.52l6.67-9.1c.51-.7,1.57-.68,2.06,.03l6.16,9.03c.23,.34,.62,.55,1.04,.55h13.71c1.04,0,1.63-1.18,1.01-2.01l-14.04-18.86Z"/><path d="M376.38,2.64C376.36,1.18,375.17,0,373.71,0h0s-8.11,0-8.11,0c-2.17,0-3.94,1.77-3.94,3.94v12.52c0,1.01-1.14,1.65-1.96,1.07-2.59-1.81-5.86-2.67-9.72-2.67-11.52,0-20.78,8.33-20.78,21.71s9.26,21.87,20.78,21.87c4.28,0,7.74-.96,10.39-2.99,.62-.47,1.44-.23,1.81,.37,.78,1.27,2.28,1.92,3.77,1.92h9.49c.28,0,.53-.11,.71-.3v.3h.29V9.12c0-.14-.02-3.84-.06-6.48Zm-23.28,44.05c-5.06,0-8.88-3.66-8.88-10.12s3.82-9.96,8.88-9.96,8.79,3.58,8.79,9.96-3.81,10.12-8.79,10.12Z"/><path d="M391.64,15.56h-12.27c-.7,0-1.26,.56-1.26,1.26V56.48c0,.7,.56,1.26,1.26,1.26h12.27c.7,0,1.26-.56,1.26-1.26V16.82c0-.7-.56-1.26-1.26-1.26Z"/><path d="M438.79,15.56h-11.56c-.69,0-1.26,.57-1.26,1.26v.66c0,1.08-1.26,1.66-2.08,.95-2.8-2.42-6.56-3.57-11.15-3.57-7.38,0-14.01,3.44-17.69,9.32-.1,.16-.15,.35-.15,.55v20.86c0,.24,.07,.48,.2,.69,3.69,5.87,10.29,9.28,17.64,9.28,5.37,0,9.65-1.63,12.53-4.98v1.4c0,6.62-3.35,10.2-11.29,10.2-4.57,0-9.8-1.45-13.34-3.86-.49-.33-1.16-.16-1.44,.37l-4.42,8.53c-.23,.45-.1,1.01,.33,1.29,5.12,3.33,12.48,5.03,20.2,5.03,15.72,0,24.74-7.55,24.74-23.5V16.82c0-.69-.57-1.26-1.26-1.26Zm-22.55,28.25c-5.29,0-9.26-3.5-9.26-8.64s3.97-8.56,9.26-8.56,9.18,3.43,9.18,8.56-3.89,8.64-9.18,8.64Z"/><path d="M482.1,47.91c-.1-.7-.77-1.14-1.46-1.02-.45,.07-.91,.11-1.37,.11-2.65,0-4.44-1.71-4.44-4.82v-12.75c0-.7,.56-1.26,1.26-1.26h7.13c.7,0,1.26-.56,1.26-1.26v-9.27l-.1,.06c-.16-.34-.5-.58-.9-.58h-7.39c-.7,0-1.26-.56-1.26-1.26V7.41c0-.7-.56-1.26-1.26-1.26h-12.26c-.7,0-1.26,.56-1.26,1.26V15.86c0,.7-.56,1.26-1.26,1.26h-1.98c-.14,0-.26-.12-.26-.26v-.04c0-.7-.56-1.26-1.26-1.26h-12.27c-.7,0-1.26,.56-1.26,1.26V56.48c0,.7,.56,1.26,1.26,1.26h12.27c.7,0,1.26-.56,1.26-1.26V28.43c0-.14,.12-.26,.26-.26h1.98c.7,0,1.26,.56,1.26,1.26v12.9c0,10.82,6.3,16.11,17.12,16.11,2.71,0,5.39-.38,7.63-1.17,.85-.3,1.12-1.33,.55-2.02-1.74-2.08-2.83-4.57-3.24-7.34Z"/><path d="M505.31,14.86c-6.27,0-13.03,1.54-17.83,4.42-.44,.26-.6,.83-.37,1.29l4.06,8.19c.27,.53,.93,.71,1.43,.39,2.87-1.87,6.9-3,10.53-3,5.28,0,8.14,1.97,8.81,5.52,.12,.61-.37,1.17-.99,1.17h-7.27c-13.07,0-18.76,4.82-18.76,12.61,0,.24,.01,.47,.02,.71,.17,3.34,1.54,6.31,4.01,8.5,2.66,2.35,6.61,3.78,11.69,3.78,4.78,0,8.38-1.27,10.74-3.73,.62-.66,1.72-.23,1.72,.68v1.09c0,.69,.57,1.26,1.26,1.26h11.25c.69,0,1.26-.57,1.26-1.26v-22.16c0-13.39-7.86-19.46-21.56-19.46Zm6.77,29.15c0,.12-.02,.25-.07,.37-1.2,3.23-4.03,4.72-7.24,4.72-3.5,0-5.53-1.79-5.53-4.28s1.71-4.28,6.46-4.28h5.12c.69,0,1.26,.57,1.26,1.26v2.21Z"/><path d="M541.95,0h-12.27c-.7,0-1.26,.56-1.26,1.26V57.02c0,.4,.32,.72,.72,.72h0s.09-.02,.14-.03c.05,0,.09,.03,.14,.03h12.53c.7,0,1.26-.56,1.26-1.26V1.26c0-.7-.56-1.26-1.26-1.26Z"/></g></g></svg>